<svg xmlns="http://www.w3.org/2000/svg" xmlns:xlink="http://www.w3.org/1999/xlink"><defs><style>
    .sprite-symbol-usage {display: none;}
    .sprite-symbol-usage:target {display: inline;}
  </style><symbol viewBox="0 0 22 22" id="add.13d4"><g fill="none" fill-rule="evenodd"><circle cx="11" cy="11" r="11" fill="#27241F" /><rect width="2" height="12" x="10" y="5" fill="#FFF" rx="1" /><rect width="2" height="12" x="10" y="5" fill="#FFF" rx="1" transform="rotate(90 11 11)" /></g></symbol><symbol class="icon" viewBox="0 0 1024 1024" id="alipay.a56f"><defs><style></style></defs><path fill="#00a1e9" d="M1018.8 850.2v6c0 89.4-73 162.6-162.2 162.6H167.4c-89.2 0-162.2-73.2-162.2-162.6V167.6C5.2 78.2 78.2 5 167.4 5h689.4C946 5 1019 78.2 1019 167.6v524.2l-.2 158.4zm-740-65c-158.2 0-204.8-124-125.8-193 26.4-22.4 73-34.6 99.4-36.6 93.2-10.2 180.4 26.4 283.8 77.2-74.8 93.6-166.2 152.4-257.4 152.4zM840.4 641c-40.6-14.2-95.2-34.6-156.2-56.8 36.4-63 64.8-136.2 85.2-213.4H568.8v-71.2H814V259H568.6V139.2h-99.4c-18.2 0-18.2 18.2-18.2 18.2V261H203.8v40.6h247.4v69H246.4v40.6h397.4c-14.2 50.8-34.4 97.6-56.8 140.2-127.8-42.6-265.6-77.2-352.8-54.8-54.8 14.2-91.2 38.6-111.6 63C27.4 675.4 96.2 852.2 297 852.2c119.6 0 235.2-67 324.4-176.8 133.8 65 397.4 174.8 397.4 174.8V693.8s-32.4-4-178.4-52.8z" /></symbol><symbol viewBox="0 0 40 40" id="arrow_right.2f7c"><g fill-rule="evenodd" transform="rotate(-135 15.278 13.55)"><rect width="3" height="18" x=".464" y=".009" rx="1.5" /><rect width="18" height="3" x=".464" y="15.009" rx="1.5" /></g></symbol><symbol viewBox="0 0 96 96" id="bonus.c448"><g fill="none" fill-rule="evenodd"><path fill="#E7C369" d="M22 76h27v4H16a1.99 1.99 0 0 1-.347-.03A7 7 0 0 1 8 73V52a2 2 0 0 1 2-2h8V10c0-.552.224-1.052.586-1.414A1.994 1.994 0 0 1 20 8h60c.552 0 1.052.224 1.414.586.362.362.586.862.586 1.414v33h-4V12H22v64zm-4-22h-6v19a3 3 0 0 0 6 0V54z" /><path fill="#E7C369" d="M35 46v5.35a2 2 0 1 1-4 0V44c0-.552.224-1.052.586-1.414A1.994 1.994 0 0 1 33 42h7a2 2 0 1 1 0 4h-5zm-2 14.63a2 2 0 1 1 0 4 2 2 0 0 1 0-4zM33 32h31a2 2 0 1 1 0 4H33a2 2 0 1 1 0-4zm0-10h34a2 2 0 1 1 0 4H33a2 2 0 1 1 0-4z" /><path fill="#E7C369" d="M32.244 64.513c.86.315 1.787.487 2.756.487a8 8 0 1 0-1.5-15.86v4.15a4 4 0 1 1 0 7.418V62l-1.256 2.513z" /><path fill="#D0A651" d="M86 61.75l-14.227 8.214a2 2 0 0 1-1.273.25 1.99 1.99 0 0 1-1.273-.25L55 61.75V82a2 2 0 0 0 2 2h27a2 2 0 0 0 2-2V61.75zm0-4.62V51a2 2 0 0 0-2-2H57a2 2 0 0 0-2 2v6.13l15.5 8.95L86 57.13zM54 45h33a3 3 0 0 1 3 3v37a3 3 0 0 1-3 3H54a3 3 0 0 1-3-3V48a3 3 0 0 1 3-3z" /></g></symbol><symbol viewBox="0 0 24 24" id="check.613c"><path fill="#D4BA6B" fill-rule="evenodd" d="M4 0h20v20a4 4 0 0 1-4 4H0V4a4 4 0 0 1 4-4zm13.29 7.293l-6.922 6.923-3.663-3.663-1.414 1.414 5.077 5.077 8.337-8.337-1.414-1.414z" /></symbol><symbol viewBox="0 0 32 32" id="checkbox.00fe"><path fill="#5D4A1D" fill-rule="evenodd" d="M28.067 5.493L13.942 19.006l-4.898-4.898L6.4 16.752l7.542 7.542L30.204 8.628A15.931 15.931 0 0 1 32 16c0 8.837-7.163 16-16 16S0 24.837 0 16 7.163 0 16 0c4.815 0 9.134 2.127 12.067 5.493z" /></symbol><symbol viewBox="0 0 28 28" id="close.0dd1"><path fill-rule="evenodd" d="M16.496 14l9.993-9.993a1.77 1.77 0 0 0-.012-2.485 1.753 1.753 0 0 0-2.485-.01L14 11.503 4.007 1.51a1.77 1.77 0 0 0-2.485.012 1.753 1.753 0 0 0-.01 2.485L11.503 14 1.51 23.993a1.77 1.77 0 0 0 .012 2.485 1.753 1.753 0 0 0 2.485.01L14 16.497l9.993 9.993c.67.668 1.796.677 2.485-.012a1.753 1.753 0 0 0 .01-2.485L16.497 14z" /></symbol><symbol class="icon" viewBox="0 0 1024 1024" id="close_circled.d7b8"><path d="M512 66C264.6 66 64 266.6 64 514s200.6 448 448 448 448-200.6 448-448S759.4 66 512 66zm216.6 599c3 3 4.6 7 4.6 11.2 0 4.2-1.6 8.4-4.6 11.2l-43.2 43.4c-3.2 3.2-7.2 4.6-11.2 4.6-4 0-8.2-1.6-11.2-4.6L512 579.6 361.2 731c-3 3.2-7.2 4.6-11.2 4.6-4 0-8.2-1.6-11.2-4.6l-43.2-43.4c-3-3-4.6-7-4.6-11.2 0-4.2 1.6-8.4 4.6-11.2l151.4-152-151.8-150c-6.2-6.2-6.2-16.4 0-22.6l43.2-43.4c3-3 7-4.6 11.2-4.6 4.2 0 8.2 1.6 11.2 4.6l151.4 149.4 151.4-149.4c3-3 7-4.6 11.2-4.6 4.2 0 8.2 1.6 11.2 4.6l43.2 43.4c6.2 6.2 6.2 16.4 0 22.6l-151.8 150L728.6 665z" /></symbol><symbol viewBox="0 0 96 96" id="discount.ebfe"><g fill="none" fill-rule="evenodd"><path fill="#D0A651" d="M9 34.31h78a3 3 0 0 1 3 3v12.23a3 3 0 0 1-1.682 2.694C85.44 53.642 84 55.78 84 58.648s1.44 5.005 4.318 6.413A3 3 0 0 1 90 67.757V81a3 3 0 0 1-3 3H9a3 3 0 0 1-3-3V68.034a3 3 0 0 1 1.922-2.8C10.642 64.187 12 61.992 12 58.648c0-3.344-1.36-5.54-4.078-6.586A3 3 0 0 1 6 49.262V37.31a3 3 0 0 1 3-3zm3 4.056a2 2 0 0 0-2 2v8.14c4 2.03 6 5.41 6 10.14 0 4.734-2 8.115-6 10.143v9.154a2 2 0 0 0 2 2h72a2 2 0 0 0 2-2V68.79c-4-2.03-6-5.41-6-10.142 0-4.733 2-8.113 6-10.14v-8.14a2 2 0 0 0-2-2H12zm13 7.1a2 2 0 0 1 2 2v23.38a2 2 0 1 1-4 0v-23.38a2 2 0 0 1 2-2zm46 0a2 2 0 0 1 2 2v23.38a2 2 0 1 1-4 0v-23.38a2 2 0 0 1 2-2z" /><path fill="#D0A651" d="M51.268 55.606h3.704a2.028 2.028 0 0 1 0 4.056h-4.944v3.042h4.944a2.028 2.028 0 1 1 0 4.057h-4.944v3.423a2.028 2.028 0 0 1-4.056 0V66.76h-4.944a2.028 2.028 0 0 1 0-4.056h4.944v-3.042h-4.944a2.028 2.028 0 0 1 0-4.056h3.653l-4.948-4.95a2.028 2.028 0 0 1 2.868-2.868l5.375 5.375 5.374-5.375a2.028 2.028 0 1 1 2.867 2.868l-4.95 4.95z" /><path fill="#E7C369" d="M15 22.14h66a3 3 0 0 1 3 3v7.142H12V25.14a3 3 0 0 1 3-3zm3 4.057a2 2 0 0 0-2 2v4.085h64v-4.085a2 2 0 0 0-2-2H18zM23 12h50a3 3 0 0 1 3 3v5.113H20V15a3 3 0 0 1 3-3zm3 4.056a2 2 0 0 0-2 2v2.057h48v-2.057a2 2 0 0 0-2-2H26z" /></g></symbol><symbol viewBox="0 0 48 48" id="footer_coupon.9004"><g fill="none" fill-rule="evenodd"><g stroke="#F4CF76" stroke-linecap="round" stroke-linejoin="round" stroke-width="3"><path d="M19.254 22.83h10.5m-10.5 4.96h10.5m-5.25-5.04v9.456M28.41 17.55l-3.844 3.846-3.844-3.845" /><path d="M37.05 13.025c4.47 4.89 5.842 12.167 2.906 18.567-3.915 8.535-14.006 12.28-22.54 8.365-8.534-3.915-12.278-14.007-8.364-22.54 3.915-8.535 14.006-12.28 22.54-8.365" /></g><path d="M0 0h48v48H0z" /></g></symbol><symbol viewBox="0 0 48 48" id="footer_homepage.8fc7"><g fill="none" fill-rule="evenodd"><path d="M0 0h48v48H0z" /><path fill="#F4CF76" fill-rule="nonzero" d="M43.902 16.868a.477.477 0 0 1-.042.02l.042-.02zm-1.395-1.02a.96.96 0 0 0-.01.076l.01-.077zm-37.012.057l.006.045a.49.49 0 0 0-.005-.045zm-1.46.933l.01.006a.936.936 0 0 1-.01-.006zm35.252 2.383a1.51 1.51 0 0 1-2.02-.63 1.465 1.465 0 0 1 .64-1.99l4.56-2.324a2.044 2.044 0 0 1 1.684-.146c.903.32 1.48 1.224 1.325 2.142l-2.46 19.27-.278 1.656c-.226 1.33-1.395 2.302-2.764 2.302H8.02c-1.368 0-2.537-.974-2.763-2.304l-.287-1.712L2.528 16.33c-.065-.39-.012-.78.15-1.14a2.032 2.032 0 0 1 2.84-.92l5.17 2.875 3.24 1.8 8.477-9.727a2.116 2.116 0 0 1 1.593-.718c.606 0 1.19.257 1.595.722l8.853 10.157a1.46 1.46 0 0 1-.162 2.08c-.63.53-1.576.46-2.115-.16l-8.173-9.375-8.172 9.378a2.316 2.316 0 0 1-1.72.784 2.168 2.168 0 0 1-.737-.113 2.242 2.242 0 0 1-.41-.177l-3.744-2.08-3.48-1.934 2.203 17.275.25 1.49h31.62l.243-1.432L42.27 17.7l-2.984 1.52z" /></g></symbol><symbol viewBox="0 0 48 48" id="footer_mission.cc6f"><g fill="none" fill-rule="evenodd"><g stroke="#F4CF76" stroke-linecap="round" stroke-linejoin="round" stroke-width="3"><path d="M40.5 14.203v13.922c0 6.834-5.708 12.375-12.75 12.375H8.563c-.587 0-1.063-.462-1.063-1.03V7.5h32.47" /><path d="M17.395 23.162l5.312 5.156 8.898-8.636" /></g><path d="M0 0h48v48H0z" /></g></symbol><symbol viewBox="0 0 19 19" id="footer_newcoupon.a83e"><path d="M8.203 7.743L6.828 6.354A.75.75 0 1 1 7.894 5.3l1.39 1.403L10.672 5.3a.75.75 0 1 1 1.066 1.055l-1.375 1.39h1.513a.75.75 0 1 1 0 1.5h-1.875v1.004h1.875a.75.75 0 0 1 0 1.5h-1.875v1.48a.75.75 0 0 1-1.5 0v-1.48H6.627a.75.75 0 0 1 0-1.5h1.875V9.243H6.627a.75.75 0 0 1 0-1.5h1.576zm6.766-3.7a.75.75 0 0 1 1.112-1.006 9.403 9.403 0 0 1 1.58 10.191c-2.13 4.689-7.622 6.748-12.268 4.595C.75 15.673-1.284 10.133.843 5.45 2.973.76 8.465-1.3 13.111.854a.75.75 0 1 1-.63 1.36C8.593.415 3.995 2.138 2.209 6.07c-1.787 3.936-.078 8.59 3.814 10.393 3.889 1.801 8.487.078 10.272-3.854a7.904 7.904 0 0 0-1.326-8.564z" /></symbol><symbol viewBox="0 0 18 18" id="footer_newcouponlight.1dc5"><defs><circle id="footer_newcouponlight.1dc5_a" cx="24" cy="16" r="9" /></defs><g fill="none" fill-rule="evenodd" transform="translate(-15 -7)"><use fill="#F2D499" xlink:href="#footer_newcouponlight.1dc5_a" /><use fill="url(#footer_newcouponlight.1dc5_b)" fill-opacity=".5" xlink:href="#footer_newcouponlight.1dc5_a" /><path fill="#FFF" fill-rule="nonzero" d="M23.203 14.743l-1.375-1.389a.75.75 0 1 1 1.066-1.055l1.39 1.403 1.389-1.403a.75.75 0 1 1 1.066 1.055l-1.375 1.39h1.513a.75.75 0 1 1 0 1.5h-1.875v1.004h1.875a.75.75 0 0 1 0 1.5h-1.875v1.48a.75.75 0 0 1-1.5 0v-1.48h-1.875a.75.75 0 0 1 0-1.5h1.875v-1.005h-1.875a.75.75 0 0 1 0-1.5h1.576z" /></g></symbol><radialGradient id="footer_newcouponlight.1dc5_b" cx="0%" cy="0%" r="121.785%" fx="0%" fy="0%"><stop offset="0%" stop-color="#FFF" /><stop offset="100%" stop-color="#FFF" stop-opacity="0" /></radialGradient><symbol viewBox="0 0 22 16" id="footer_newhomepage.0ce2"><path fill-opacity=".8" d="M5.713 5.36L9.951.367a1.05 1.05 0 0 1 1.6.003l4.426 5.212a.75.75 0 0 1-1.143.971L10.75 1.745l-4.085 4.81a1.144 1.144 0 0 1-1.44.253L3.355 5.74l-1.738-.99 1.103 8.874.126.77h15.81l.122-.74 1.113-8.947-1.49.78a.75.75 0 0 1-.696-1.33l2.28-1.192a1.007 1.007 0 0 1 .847-.075c.45.163.737.624.66 1.09l-1.23 9.888-.139.85a1.403 1.403 0 0 1-1.382 1.176H2.76c-.686 0-1.27-.5-1.382-1.177l-.144-.879-1.22-9.83A1.017 1.017 0 0 1 .938 2.83a1 1 0 0 1 .573.132l2.585 1.474 1.616.922zm14.294-1.595a.488.488 0 0 0-.005.038l.005-.038z" /></symbol><symbol viewBox="0 0 22 19" id="footer_newhomepagedark.76c6"><defs><path id="footer_newhomepagedark.76c6_a" d="M21 16.213C21 17.753 16.523 19 11 19S1 17.752 1 16.213L10.01.583A1.132 1.132 0 0 1 11.59.169c.165.101.302.244.4.414L21 16.213z" /></defs><g fill="none" fill-rule="evenodd"><path fill="#DDBF8C" d="M.847 4.067l10.17 5.405 10.135-5.404a.575.575 0 0 1 .781.245c.052.1.074.212.065.323L21.046 16H.989L.002 4.638a.584.584 0 0 1 .526-.636c.11-.01.221.013.32.065z" /><use fill="#F2D499" xlink:href="#footer_newhomepagedark.76c6_a" /><use fill="url(#footer_newhomepagedark.76c6_b)" fill-opacity=".5" xlink:href="#footer_newhomepagedark.76c6_a" /></g></symbol><radialGradient id="footer_newhomepagedark.76c6_b" cx="0%" cy="0%" r="123.91%" fx="0%" fy="0%" gradientTransform="matrix(.56097 .80704 -.76669 .5905 0 0)"><stop offset="0%" stop-color="#FFF" /><stop offset="100%" stop-color="#FFF" stop-opacity="0" /></radialGradient><symbol viewBox="0 0 22 19" id="footer_newhomepagelight.4133"><defs><path id="footer_newhomepagelight.4133_a" d="M21 16.213C21 17.753 16.523 19 11 19S1 17.752 1 16.213L10.01.583A1.132 1.132 0 0 1 11.59.169c.165.101.302.244.4.414L21 16.213z" /></defs><g fill="none" fill-rule="evenodd"><path fill="#F2CD84" fill-rule="nonzero" d="M.847 4.067l10.17 5.405 10.135-5.404a.575.575 0 0 1 .781.245c.052.1.074.212.065.323L21.046 16H.989L.002 4.638a.584.584 0 0 1 .526-.636c.11-.01.221.013.32.065z" /><use fill="#F2D499" xlink:href="#footer_newhomepagelight.4133_a" /><use fill="url(#footer_newhomepagelight.4133_b)" fill-opacity=".3" xlink:href="#footer_newhomepagelight.4133_a" /></g></symbol><radialGradient id="footer_newhomepagelight.4133_b" cy="0%" r="85.719%" fx="50%" fy="0%" gradientTransform="scale(.95 1) rotate(70.503 .513 .019)"><stop offset="0%" stop-color="#FFF" /><stop offset="100%" stop-color="#FFF" stop-opacity="0" /></radialGradient><symbol viewBox="0 0 18 19" id="footer_newmission.c002"><path d="M1.5 16.667h9.375c3.11 0 5.625-2.466 5.625-5.5V4.135a.75.75 0 0 1 1.5 0v7.032c0 3.869-3.193 7-7.125 7H1.282A1.276 1.276 0 0 1 0 16.896V.75A.75.75 0 0 1 .75 0h16.235a.75.75 0 1 1 0 1.5H1.5v15.167zm6.853-6.453l3.925-3.847a.75.75 0 0 1 1.05 1.071L8.878 11.8a.75.75 0 0 1-1.05 0L5.172 9.196a.75.75 0 0 1 1.05-1.071l2.131 2.089z" /></symbol><symbol viewBox="0 0 18 19" id="footer_newmissionlight.7f09"><defs><path id="footer_newmissionlight.7f09_a" d="M33 11.135v7.032c0 3.869-3.193 7-7.125 7h-9.593A1.276 1.276 0 0 1 15 23.896V7.75a.75.75 0 0 1 .75-.75h16.5a.75.75 0 0 1 .75.75v3.385z" /></defs><g fill="none" fill-rule="evenodd" transform="translate(-15 -7)"><use fill="#F2D499" xlink:href="#footer_newmissionlight.7f09_a" /><use fill="url(#footer_newmissionlight.7f09_b)" fill-opacity=".5" xlink:href="#footer_newmissionlight.7f09_a" /><path fill="#FFF" fill-rule="nonzero" d="M23.353 17.214l3.925-3.847a.75.75 0 0 1 1.05 1.071l-4.45 4.362a.75.75 0 0 1-1.05 0l-2.656-2.604a.75.75 0 0 1 1.05-1.071l2.131 2.089z" /></g></symbol><radialGradient id="footer_newmissionlight.7f09_b" cx="0%" cy="0%" r="122.547%" fx="0%" fy="0%" gradientTransform="matrix(.56721 .81602 -.82357 .56201 0 0)"><stop offset="0%" stop-color="#FFF" /><stop offset="100%" stop-color="#FFF" stop-opacity="0" /></radialGradient><symbol viewBox="0 0 10 11" id="location.54ab"><defs><path id="location.54ab_a" d="M5.8 10.8a.45.45 0 0 1-.27-.81l2.575-1.927s.228-.182.294-.242A4 4 0 0 0 9.7 4.865C9.7 2.679 7.95.9 5.8.9S1.9 2.679 1.9 4.865a4 4 0 0 0 1.718 3.287l.951.715a.45.45 0 1 1-.554.71l-.075-.06-.846-.634a4.723 4.723 0 0 1-.496-.393A4.903 4.903 0 0 1 1 4.865C1 2.182 3.153 0 5.8 0s4.8 2.182 4.8 4.865c0 1.38-.582 2.701-1.597 3.624-.078.07-.347.286-.347.286L6.07 10.71a.449.449 0 0 1-.269.09zM7 4.2a1.2 1.2 0 1 1-2.4 0 1.2 1.2 0 0 1 2.4 0z" /></defs><use fill="#f2d499" fill-rule="evenodd" transform="translate(-1)" xlink:href="#location.54ab_a" /></symbol><symbol viewBox="0 0 110 32" id="offer.263f"><g fill="none" fill-rule="evenodd"><path fill="#EE4909" d="M17 6.913V26h1.537V8.413h3.624c-.57 1.804-1.382 3.848-2.415 6.11 1.538 1.825 2.307 3.5 2.307 4.977 0 .457-.154.783-.418.978-.285.174-.834.283-1.647.326-.22 0-.505-.043-.857-.087l.528 1.587c1.58-.02 2.68-.282 3.294-.782.44-.413.68-1.087.68-2.022-.087-1.565-.856-3.304-2.26-5.217a78.298 78.298 0 0 0 2.37-6.11v-1.26H17zm9.335 5.435v2.456h6.48v-2.456h-6.48zm6.48-1.435v-2.5h-6.48v2.5h6.48zM28.86 16.24h-2.525v7.434a30.47 30.47 0 0 0 3.93-1.478l.353 1.456c-1.582.674-3.56 1.326-5.953 1.957l-.373-1.35c.307-.108.483-.282.483-.5V6.936h9.576v9.304H30.29c.264 1.282.703 2.477 1.34 3.564 1.054-.587 2.086-1.456 3.075-2.63l1.032 1.022c-1.01 1.174-2.13 2.087-3.382 2.717 1.01 1.37 2.328 2.544 3.997 3.522l-.878 1.37c-3.646-2.305-5.865-5.5-6.612-9.566zm11.62-1.088h15.286v5.544H48.87v1.217h7.445v1.044H48.87v1.282h9.05v1.217H38.282V24.24h9.005v-1.283H39.93v-1.044h7.358v-1.217h-6.81v-5.544zm13.77 4.565V18.39h-5.38v1.327h5.38zm-6.962 0V18.39h-5.293v1.327h5.293zm-5.293-2.24h5.293V16.13h-5.293v1.348zm6.875-1.347v1.348h5.38V16.13h-5.38zm-7.907-9.74h14.342v5.37H40.963V6.39zm12.804 4.436V9.543H42.5v1.283h11.267zM42.5 8.61h11.267V7.347H42.5v1.26zm-4.24 4.28v1.175h19.68V12.89H38.26zm24.622.74a27.346 27.346 0 0 1-2.547 2.98l-.462-1.567a24.07 24.07 0 0 0 5.162-8.934l1.428.65a26.54 26.54 0 0 1-2 4.48v14.738h-1.58V13.63zm3.163-2.282h4.525c.022-.435.044-.87.044-1.305V6.11h1.515v3.933c0 .435-.023.87-.045 1.305h7.38v1.522h-4.568v10.673c0 .435.197.653.637.653h1.91c.242 0 .44-.13.615-.37.197-.326.33-1.478.395-3.478l1.427.456c-.153 2.305-.395 3.718-.702 4.196-.308.39-.77.61-1.34.63h-2.724c-1.164 0-1.735-.608-1.735-1.804V12.87h-1.383c-.483 5.804-2.328 10.152-5.49 13.043l-1.165-1C68.286 22.26 70 18.26 70.482 12.87h-4.437v-1.522zm8.96-4.848c1.363.935 2.527 1.89 3.45 2.848l-1.076 1.065c-.836-.935-1.956-1.913-3.406-2.935l1.032-.978zm7.293.957h8.94V6h1.58v1.457h8.94v1.347h-8.94v1.24h6.964v6.304H98.75c1.273 1.087 2.262 2.022 2.964 2.848L100.55 20c-.35-.457-.768-.913-1.23-1.39-3.733.26-9.18.5-16.297.673l-.197-1.392a752.93 752.93 0 0 0 8.412-.15v-1.392h-6.963v-6.305h6.963v-1.24h-8.94V7.458zM98.2 17.5c-.307-.283-.593-.565-.9-.826l.55-.326h-5.03v1.348a755.11 755.11 0 0 0 5.38-.196zm.066-2.326v-1.457H92.82v1.457h5.446zm-7.028 0v-1.457H85.79v1.457h5.448zm-5.447-2.522h5.448V11.24H85.79v1.412zm7.03-1.413v1.412h5.446V11.24H92.82zm-8.545 8.934a12.976 12.976 0 0 1-2.13 4.217l1.318.827c.966-1.347 1.713-2.934 2.24-4.76l-1.428-.283zm10.762 5.456H89.24c-1.297 0-1.934-.608-1.934-1.826V20h1.538v3.478c0 .48.285.718.856.718h5.052c.417 0 .703-.11.878-.305.22-.238.374-.933.462-2.086l1.45.457c-.154 1.61-.44 2.566-.835 2.914-.352.304-.9.456-1.67.456zm-3.03-6.065c1.12 1 1.976 1.892 2.59 2.652l-1.185.826c-.637-.826-1.493-1.76-2.592-2.76l1.186-.718zm6.633.152c1.45 1.61 2.57 3.044 3.36 4.26l-1.252.827c-.813-1.304-1.91-2.74-3.295-4.326l1.187-.76z" /><path stroke="#EE4909" d="M1.222 16L7.5 22.278V30A1.5 1.5 0 0 0 9 31.5h99a1.5 1.5 0 0 0 1.5-1.5V2A1.5 1.5 0 0 0 108 .5H9A1.5 1.5 0 0 0 7.5 2v7.722L1.222 16z" /></g></symbol><symbol viewBox="0 0 110 90" id="placeholder.7c04"><defs></defs><g fill="none" fill-rule="evenodd"><path d="M0 0h110v90H0z" /><path fill="#E2D59C" fill-rule="nonzero" d="M51.942 43.663H24.025c-1.47 0-2.7-1.197-2.7-2.672s1.19-2.71 2.7-2.71h27.917c1.47 0 2.66 1.196 2.66 2.71.04 1.476-1.19 2.673-2.66 2.673zm-13.938 16.03H10.087c-1.47 0-2.7 1.195-2.7 2.71a2.675 2.675 0 0 0 2.7 2.672h1.867a2.71 2.71 0 0 1 2.7 2.71 2.675 2.675 0 0 1-2.7 2.673H2.818c-1.47 0-2.7 1.196-2.7 2.71a2.675 2.675 0 0 0 2.7 2.673h30.26c1.47 0 2.7-1.196 2.7-2.67s-1.19-2.712-2.7-2.712h-3.97c1.47 0 2.7-1.197 2.7-2.672s-1.192-2.71-2.7-2.71h8.895c1.47 0 2.7-1.198 2.7-2.673-.04-1.475-1.23-2.71-2.7-2.71zm32.682-5.863h27.917c1.47 0 2.7-1.196 2.7-2.71a2.675 2.675 0 0 0-2.7-2.673H70.686c-1.47 0-2.7 1.197-2.7 2.672s1.19 2.71 2.7 2.71zm36.336 16.628h-4.37c-1.468 0-2.7-1.197-2.7-2.672s1.192-2.71 2.7-2.71h1.868c1.47 0 2.7-1.198 2.7-2.673s-1.19-2.71-2.7-2.71H77.437c-1.47 0-2.7 1.195-2.7 2.71a2.675 2.675 0 0 0 2.7 2.672h6.91c-1.47 0-2.7 1.196-2.7 2.71a2.675 2.675 0 0 0 2.7 2.673H76.8c-1.47 0-2.7 1.196-2.7 2.71a2.675 2.675 0 0 0 2.7 2.673h30.26c1.47 0 2.7-1.196 2.7-2.67-.04-1.476-1.27-2.712-2.74-2.712z" opacity=".16" /><ellipse cx="92.209" cy="40.792" fill="#E2D59C" fill-rule="nonzero" opacity=".3" rx="1.708" ry="1.715" /><ellipse cx="11.357" cy="52.993" fill="#E2D59C" fill-rule="nonzero" opacity=".3" rx="1.708" ry="1.715" /><g fill-rule="nonzero" transform="translate(61.95 40.91)"><ellipse cx="17.195" cy="17.345" fill="#FFE922" rx="17.036" ry="17.106" /><path fill="url(#placeholder.7c04_a)" d="M22.437 19.378h-4.01v-2.033h4.01c.675 0 1.19-.558 1.19-1.196 0-.64-.555-1.197-1.19-1.197H19.1l3.733-3.75a1.207 1.207 0 0 0 0-1.713 1.195 1.195 0 0 0-1.708 0l-3.89 3.907L13.34 9.49a1.195 1.195 0 0 0-1.708 0 1.207 1.207 0 0 0 0 1.714l3.733 3.75H11.95c-.675 0-1.19.557-1.19 1.195 0 .637.555 1.195 1.19 1.195H16v2.033h-4.05a1.197 1.197 0 0 0 0 2.393H16v2.633c0 .677.557 1.196 1.192 1.196.635 0 1.19-.56 1.19-1.197V21.77h4.012c.675 0 1.19-.558 1.19-1.196.08-.678-.475-1.197-1.15-1.197z" /><path fill="url(#placeholder.7c04_b)" d="M17.195 5.622c6.473 0 11.715 5.263 11.715 11.763a11.7 11.7 0 0 1-11.715 11.723c-6.473 0-11.715-5.264-11.715-11.763 0-6.5 5.282-11.723 11.715-11.723zm0-2.592C9.332 3.03 2.94 9.45 2.94 17.345S9.33 31.66 17.194 31.66 31.45 25.24 31.45 17.344 25.096 3.03 17.194 3.03z" /></g><g fill-rule="nonzero" transform="translate(14.296 47.29)"><ellipse cx="10.523" cy="10.566" fill="#FFE922" rx="10.365" ry="10.407" /><path fill="url(#placeholder.7c04_c)" d="M13.74 11.763h-2.422v-1.236h2.422a.756.756 0 0 0 .755-.758.732.732 0 0 0-.755-.76h-2.025l2.263-2.27a.75.75 0 0 0 0-1.038.74.74 0 0 0-1.032 0l-2.383 2.392L8.18 5.702a.74.74 0 0 0-1.032 0 .75.75 0 0 0 0 1.037l2.264 2.27H7.347a.756.756 0 0 0-.755.758c0 .44.318.758.755.758H9.81v1.236H7.346a.756.756 0 0 0-.755.757c0 .398.318.757.755.757H9.81v1.595c0 .4.316.757.753.757a.732.732 0 0 0 .755-.758v-1.595h2.422a.756.756 0 0 0 .755-.758c-.04-.4-.358-.758-.755-.758z" /><path fill="url(#placeholder.7c04_d)" d="M10.523 3.39c3.932 0 7.148 3.23 7.148 7.176 0 3.948-3.215 7.178-7.147 7.178-3.93 0-7.148-3.23-7.148-7.178.04-3.947 3.217-7.177 7.148-7.177zm0-1.556c-4.805 0-8.696 3.908-8.696 8.732 0 4.825 3.89 8.733 8.696 8.733 4.806 0 8.697-3.91 8.697-8.734s-3.89-8.732-8.697-8.732z" /></g><path fill="#FFD41F" fill-rule="nonzero" d="M89.628 28.67c-1.55 0-4.884 3.35-4.884 4.905 0-1.555-3.336-4.905-4.885-4.905 1.548 0 4.884-3.35 4.884-4.904 0 1.555 3.335 4.904 4.884 4.904zm-62.585 4.067c-1.112 0-3.494 2.393-3.494 3.51 0-1.117-2.384-3.51-3.496-3.51 1.112 0 3.495-2.392 3.495-3.51.04 1.118 2.38 3.51 3.493 3.51z" /><path fill="url(#placeholder.7c04_e)" fill-rule="nonzero" d="M77.04 75.84H28.95V15.553a2.395 2.395 0 0 1 2.382-2.393h43.325a2.395 2.395 0 0 1 2.383 2.393V75.84z" /><g fill="#735B27" fill-rule="nonzero" opacity=".5"><g transform="translate(34.152 16.987)"><ellipse cx="5.321" cy=".758" rx="1" ry="1" /><path d="M5.64.478a.435.435 0 0 1 0 .6.43.43 0 0 1-.597 0" /><ellipse cx="10.126" cy="2.273" rx="1" ry="1" /><path d="M10.404 1.954a.435.435 0 0 1 0 .598.43.43 0 0 1-.595 0" /><ellipse cx=".635" cy="2.273" rx="1" ry="1" /><path d="M.913 1.954a.435.435 0 0 1 0 .598.43.43 0 0 1-.595 0m9.332.28L7.664 3.946c-.08.04-.16.04-.238-.04L5.44 1.597a.112.112 0 0 0-.198 0l-1.986 2.31c-.04.08-.16.08-.238.04L1.032 2.83c-.08-.04-.198.04-.158.12l.556 3.31.08.358c.04.16.158.24.277.24h7.148c.16 0 .278-.12.278-.24l.08-.36.555-3.31c-.04-.118-.12-.158-.198-.118z" /><path d="M9.65 2.83L7.664 3.948c-.08.04-.16.04-.238-.04L5.44 1.597a.112.112 0 0 0-.198 0l-1.986 2.31c-.04.08-.16.08-.238.04L1.032 2.83c-.08-.04-.198.04-.158.12l.556 3.31.08.358c.04.16.158.24.277.24h7.148c.16 0 .278-.12.278-.24l.08-.36.555-3.31c-.04-.118-.12-.158-.198-.118z" opacity=".8" /></g><path d="M43.8 19.818l-1.666.917-5.123 3.11h6.037c.16 0 .278-.12.278-.24l.08-.358.555-3.31c0-.12-.08-.16-.16-.12z" opacity=".6" /><path d="M35.184 19.818l1.668.917 5.123 3.11H35.94c-.16 0-.28-.12-.28-.24l-.08-.358-.555-3.31c-.04-.12.08-.16.16-.12z" opacity=".6" /><path d="M41.776 20.935c-.08.04-.16.04-.238-.04l-1.986-2.313c-.04-.04-.08-.04-.08-.04v3.828l2.662-1.635 1.667-.917-2.024 1.117z" /></g><path fill="#735B27" fill-rule="nonzero" d="M43.047 28.272h-6.71a.883.883 0 0 1-.875-.878c0-.478.397-.877.874-.877h6.71c.477 0 .875.4.875.877.04.48-.357.878-.873.878zm21.365 4.067H36.375a.883.883 0 0 1-.873-.88c0-.477.397-.876.873-.876h28.037c.476 0 .873.4.873.877a.883.883 0 0 1-.873.88z" opacity=".2" /><ellipse cx="53.372" cy="54.03" fill="url(#placeholder.7c04_f)" fill-rule="nonzero" rx="14.971" ry="15.032" /><g fill-rule="nonzero"><path fill="url(#placeholder.7c04_g)" d="M.2 1.196C.2.558.515.08 1.19.08h3.14c.595 0 .913.438.913.877s-.318.877-.913.877H2.105v1.874H4.17c.635 0 .913.44.913.877 0 .44-.318.878-.913.878H2.105v1.953h2.343c.595 0 .913.44.913.878s-.317.877-.912.877H1.152c-.556 0-.993-.398-.993-.956V1.196H.2z" transform="translate(42.49 50.082)" /><path fill="url(#placeholder.7c04_h)" d="M5.996.997C5.996.36 6.394 0 6.95 0c.238 0 .635.2.794.44l4.01 5.382h.04V.997c0-.638.397-.997.953-.997.556 0 .953.36.953.997v7.257c0 .638-.397.997-.953.997-.238 0-.635-.2-.794-.438L7.943 3.47h-.04v4.744c0 .638-.398.997-.954.997-.556 0-.954-.36-.954-.996V.997z" transform="translate(42.49 50.082)" /><path fill="url(#placeholder.7c04_i)" d="M14.773 1.077c0-.6.397-.997.992-.997h2.105c2.86 0 4.487 1.834 4.487 4.665 0 2.67-1.747 4.426-4.328 4.426h-2.225c-.437 0-.993-.24-.993-.956V1.077h-.04zm1.906 6.34h1.27c1.628 0 2.382-1.197 2.382-2.752 0-1.635-.754-2.83-2.502-2.83h-1.15v5.58z" transform="translate(42.49 50.082)" /></g></g></symbol><linearGradient id="placeholder.7c04_a" x1="-41.038%" x2="55.532%" y1="66.126%" y2="44.774%"><stop offset=".048%" stop-color="#DDB612" stop-opacity="0" /><stop offset="100%" stop-color="#DDB612" /></linearGradient><linearGradient id="placeholder.7c04_b" x1="-9.887%" x2="60.628%" y1="67%" y2="47.066%"><stop offset=".048%" stop-color="#DDB612" stop-opacity="0" /><stop offset="100%" stop-color="#DDB612" /></linearGradient><linearGradient id="placeholder.7c04_c" x1="-40.578%" x2="55.239%" y1="65.905%" y2="44.767%"><stop offset=".048%" stop-color="#DDB612" stop-opacity="0" /><stop offset="100%" stop-color="#DDB612" /></linearGradient><linearGradient id="placeholder.7c04_d" x1="-9.826%" x2="60.617%" y1="66.851%" y2="46.937%"><stop offset=".048%" stop-color="#DDB612" stop-opacity="0" /><stop offset="100%" stop-color="#DDB612" /></linearGradient><linearGradient id="placeholder.7c04_e" x1="50.03%" x2="50.03%" y1=".307%" y2="91.236%"><stop offset=".044%" stop-color="#F9EDDE" /><stop offset="100%" stop-color="#FFDD89" /></linearGradient><linearGradient id="placeholder.7c04_f" x1="49.939%" x2="49.939%" y1="-3.316%" y2="96.649%"><stop offset=".044%" stop-color="#9E8A4C" /><stop offset="100%" stop-color="#DB964C" /></linearGradient><linearGradient id="placeholder.7c04_g" x1="50.095%" x2="50.095%" y1="99.893%" y2="-.029%"><stop offset=".044%" stop-color="#FFFF62" /><stop offset="100%" stop-color="#FFD41F" /></linearGradient><linearGradient id="placeholder.7c04_h" x1="50.01%" x2="50.01%" y1="99.859%" y2=".006%"><stop offset=".044%" stop-color="#FFFF62" /><stop offset="100%" stop-color="#FFD41F" /></linearGradient><linearGradient id="placeholder.7c04_i" x1="49.853%" x2="49.853%" y1="99.893%" y2="-.029%"><stop offset=".044%" stop-color="#FFFF62" /><stop offset="100%" stop-color="#FFD41F" /></linearGradient><symbol viewBox="0 0 30 30" id="rule.ad5b"><g fill-rule="evenodd"><path fill-rule="nonzero" d="M15 25.5c5.8 0 10.5-4.7 10.5-10.5S20.8 4.5 15 4.5 4.5 9.2 4.5 15 9.2 25.5 15 25.5zm0 1.5C8.373 27 3 21.627 3 15S8.373 3 15 3s12 5.373 12 12-5.373 12-12 12z" /><path d="M15.22 7.44c-1.48 0-2.64.42-3.48 1.28-.84.84-1.26 1.98-1.26 3.44h2.1c0-.88.18-1.56.54-2.04.4-.58 1.06-.86 1.96-.86.72 0 1.3.2 1.7.6.38.4.58.94.58 1.64 0 .52-.2 1-.56 1.46l-.34.38c-1.24 1.1-2 1.92-2.26 2.48-.28.52-.4 1.16-.4 1.9v.34h2.14v-.34c0-.48.1-.92.32-1.32.18-.36.46-.72.84-1.04.94-.82 1.5-1.34 1.68-1.56.5-.64.76-1.46.76-2.44 0-1.2-.4-2.16-1.2-2.86-.8-.72-1.84-1.06-3.12-1.06zm-.36 11.7c-.4 0-.76.12-1.04.4-.28.26-.42.6-.42 1.02 0 .4.14.74.42 1.02.28.28.64.42 1.04.42s.76-.14 1.04-.4c.28-.28.44-.62.44-1.04 0-.42-.14-.76-.42-1.02-.28-.28-.64-.4-1.06-.4z" /></g></symbol><symbol class="icon" viewBox="0 0 1024 1024" id="search.663a"><path d="M998.657 936.884c14.138 17.232 11.938 42.6-4.956 57.14-14.296 16.675-39.4 18.605-56.078 4.31l-.496-.434-208.212-210.958a2.102 2.102 0 0 0-1.1-1.1c-185.03 153.024-459.045 127.045-612.06-57.974S-11.282 268.844 173.707 115.82s459.074-127.047 612.07 57.972c132.02 159.646 133.053 390.258 2.468 551.083.545.546 1.645.546 2.2 1.1l208.212 210.91zM453.134 104.62c-191.154-.605-346.587 153.857-347.192 345s153.847 346.6 344.992 347.203S797.54 642.966 798.136 451.82v-1.088c0-190.728-154.293-345.507-345.022-346.102l.02-.01z" /></symbol><symbol viewBox="0 0 30 30" id="selected.ac20"><path d="M7.298 14.685L4.425 17.47l7.138 7.366L25.705 8.768l-3.002-2.643-11.28 12.817z" /></symbol><symbol viewBox="0 0 359 120" id="shell.77c2"><g fill="none" fill-rule="evenodd"><path fill="#fff" d="M0 0h359v120H0z" /><path fill="#eee" d="M16 45h200v16H16zm0-30h160v25H16zm27 69h65v20H43zm-27 0h20v20H16V84zm249-52h76a2 2 0 0 1 2 2v26a2 2 0 0 1-2 2h-76a2 2 0 0 1-2-2V34a2 2 0 0 1 2-2z" /></g></symbol><symbol viewBox="0 0 18 18" id="shop.2526"><path fill-rule="evenodd" d="M15 6.15a1.745 1.745 0 0 1-1.737 1.6h-.074a1.75 1.75 0 0 1-1.63-1.33.5.5 0 0 0-.487-.407h-.39a.495.495 0 0 0-.49.417 1.748 1.748 0 0 1-1.65 1.32H8.47c-.04 0-.052 0-.064-.002a.528.528 0 0 1-.058-.004l-.09-.01A1.748 1.748 0 0 1 6.802 6.41a.5.5 0 0 0-.487-.397h-.39c-.24 0-.44.17-.487.397a1.75 1.75 0 0 1-1.363 1.308L4 7.732a3.84 3.84 0 0 1-.08.01l-.065.005-.06.003H3.74A1.744 1.744 0 0 1 2 6.083V2h13v4.15zm-14.998.1H0a3.314 3.314 0 0 0 3.31 3.32c1.05 0 2.01-.23 2.615-.995.606.765 1.518.994 2.568.994s1.812-.367 2.418-1.132c.607.765 1.717 1.13 2.767 1.13a3.314 3.314 0 0 0 3.31-3.25.49.49 0 0 0 .013-.11V1.435A1.462 1.462 0 0 0 15.57 0H1.418A1.442 1.442 0 0 0 0 1.435v4.773c0 .015 0 .03.002.043zm14 10.75H3c-1.103 0-2-.9-2-2.006v-2.98a1 1 0 1 1 2 0v2.98L14.002 15 14 12a1 1 0 1 1 2 0v2.99c0 1.11-.896 2.01-1.998 2.01z" /></symbol><symbol viewBox="0 0 22 22" id="sub.238d"><g fill="none" fill-rule="evenodd"><circle cx="11" cy="11" r="10.5" stroke="#27241F" /><rect width="2" height="12" x="10" y="5" fill="#27241F" rx="1" transform="rotate(90 11 11)" /></g></symbol><symbol viewBox="0 0 56 34" id="tag.82ca"><defs><path id="tag.82ca_a" d="M12 0h44v22c0 6.627-5.373 12-12 12H0V12C0 5.373 5.373 0 12 0z" /></defs><g fill="none" fill-rule="evenodd"><g><use fill="#D4BA6B" xlink:href="#tag.82ca_a" /><path stroke="#D4BA6B" d="M.5 33.5H44c6.351 0 11.5-5.149 11.5-11.5V.5H12C5.649.5.5 5.649.5 12v21.5z" /></g><path fill="#FFF" d="M17.264 16.86v2.97h3.916v-2.97h-3.916zm0 4.444v3.278h3.916v-3.278h-3.916zm0 4.796v1.012h-1.562V14.22a23.511 23.511 0 0 1-1.738 2.376l-.528-1.672a22.08 22.08 0 0 0 3.806-7.854l1.54.308a26.838 26.838 0 0 1-1.232 3.454h3.982a26.54 26.54 0 0 0-1.298-3.41l1.518-.418c.528 1.32.924 2.508 1.21 3.608l-.594.22h4.202v1.54h-3.828v2.992h3.388v1.496h-3.388v2.97h3.388v1.474h-3.388v3.278h4.07V26.1h-9.548zm3.916-13.728h-3.916v2.992h3.916v-2.992zm-7.502 3.718v1.606c-.66.33-1.342.638-2.046.924v6.358c0 1.232-.66 1.87-1.958 1.87H7.65l-.33-1.54c.616.066 1.232.11 1.804.11.594 0 .902-.286.902-.858v-5.302c-.902.308-1.826.616-2.75.88l-.396-1.584a28.83 28.83 0 0 0 3.146-.902v-5.06H7.21v-1.54h2.816v-4.07h1.606v4.07h2.222v1.54h-2.222v4.444a44.07 44.07 0 0 0 2.046-.946zm15.796-7.458h4.994V7.048h1.628v1.584h5.808V7.048h1.628v1.584h4.994v1.452h-4.994v1.606h-1.628v-1.606h-5.808v1.584h-1.628v-1.584h-4.994V8.632zm.286 4.532h6.204a35.05 35.05 0 0 0 .726-1.672l1.54.264c-.176.484-.374.946-.55 1.408h10.736v1.452H36.954a20.064 20.064 0 0 1-2.354 3.3v9.328h-1.518v-7.788c-.924.836-1.936 1.606-3.036 2.354l-.99-1.276c2.618-1.716 4.642-3.696 6.072-5.918H29.76v-1.452zm12.452 6.38a86.648 86.648 0 0 0 2.75-1.782h-7.238V16.31h9.482v1.144a81.598 81.598 0 0 1-3.41 2.53v.924h4.84v1.496h-4.84v2.97c0 1.188-.594 1.782-1.76 1.782h-2.574L39 25.616c1.012.066 1.826.11 2.398.11.528 0 .814-.264.814-.792v-2.53H36.14v-1.496h6.072v-1.364z" /></g></symbol><symbol viewBox="0 0 105 30" id="tag_line.e160"><path d="M8.945 2L2 15.284 8.922 28H103V2H8.945zm0-2H103a2 2 0 0 1 2 2v26a2 2 0 0 1-2 2H8.922a2 2 0 0 1-1.757-1.044L.243 16.24a2 2 0 0 1-.015-1.883L7.172 1.073A2 2 0 0 1 8.945 0z" /></symbol><symbol viewBox="0 0 96 96" id="ticket.aacd"><g fill="none" fill-rule="evenodd"><path fill="#D0A651" d="M51.278 55H55a2 2 0 1 1 0 4h-5v3h5a2 2 0 1 1 0 4h-5v3.5a2 2 0 1 1-4 0V66h-5a2 2 0 1 1 0-4h5v-3h-5a2 2 0 1 1 0-4h3.672l-4.94-4.94a2 2 0 0 1 2.828-2.828l5.415 5.414 5.414-5.414a2 2 0 0 1 2.827 2.828L51.28 55z" /><path fill="#E7C369" d="M80 31h7a3 3 0 0 1 3 3v40a3 3 0 0 1-3 3h-7V31zm0 4v38h4a2 2 0 0 0 2-2V37a2 2 0 0 0-2-2h-4zm-64-4H9a3 3 0 0 0-3 3v40a3 3 0 0 0 3 3h7V31zm0 4v38h-4a2 2 0 0 1-2-2V37a2 2 0 0 1 2-2h4z" /><path fill="#D0A651" d="M74 25.928L49.447 40.104a1.954 1.954 0 0 1-1.447.57 1.954 1.954 0 0 1-1.446-.57L22 25.928V80a2 2 0 0 0 2 2h48a2 2 0 0 0 2-2V25.928zm0-4.476V16a2 2 0 0 0-2-2H24a2 2 0 0 0-2 2v5.45c.093.037.184.08.273.132L48 36.436l25.728-14.854c.088-.05.18-.094.272-.13zM21 10h54a3 3 0 0 1 3 3v70a3 3 0 0 1-3 3H21a3 3 0 0 1-3-3V13a3 3 0 0 1 3-3z" /></g></symbol><symbol viewBox="0 0 30 30" id="time.c69d"><g fill="none" fill-rule="evenodd"><rect width="26" height="26" x="2" y="2" stroke="#FF7373" stroke-width="4" rx="13" /><path fill="#FF7373" d="M16.483 14h4.04a1.477 1.477 0 1 1 0 2.955h-6.995V9.532a1.477 1.477 0 1 1 2.955 0V14z" /></g></symbol><symbol viewBox="0 0 10 8" id="vip.6f57"><path d="M4.19 5.04l1.486-2.482a.464.464 0 0 1 .795 0l1.486 2.48 2.17-1.138a.232.232 0 0 1 .339.224l-.381 4.467c0 .594-1.796 1.076-4.011 1.076-2.216 0-4.012-.482-4.012-1.076l-.394-4.467a.23.23 0 0 1 .338-.224l2.183 1.14z" /></symbol><symbol viewBox="0 0 10 9" id="volume.270e"><defs><path id="volume.270e_a" d="M3 3.5l3.2-2.4a.5.5 0 0 1 .8.4v8a.5.5 0 0 1-.8.4L3 7.5H1.5A.5.5 0 0 1 1 7V4a.5.5 0 0 1 .5-.5H3zm6.235-.126c.04.033.99.825 1.033 1.99.027.743-.313 1.454-1.012 2.111a.46.46 0 0 1-.316.122.461.461 0 0 1-.306-.113.379.379 0 0 1-.01-.57c.523-.492.78-1.002.763-1.516-.026-.82-.735-1.42-.742-1.427a.38.38 0 0 1-.03-.568.469.469 0 0 1 .62-.03z" /></defs><use fill="#FFE1B8" fill-rule="nonzero" transform="translate(-1 -1)" xlink:href="#volume.270e_a" /></symbol><symbol viewBox="0 0 24 24" id="warning-brown.0207"><path fill="#735B27" d="M12 22c5.523 0 10-4.477 10-10S17.523 2 12 2 2 6.477 2 12s4.477 10 10 10zm0 2C5.373 24 0 18.627 0 12S5.373 0 12 0s12 5.373 12 12-5.373 12-12 12zM11 5h2v10h-2V5zm0 12h2v2h-2v-2z" /></symbol><symbol viewBox="0 0 20 20" id="warning.4077"><g fill="none" fill-rule="evenodd"><path stroke="#FF0034" stroke-width="2" d="M10 19a9 9 0 1 0 0-18 9 9 0 0 0 0 18z" /><path fill="#FF0034" d="M9 5h2v7H9V5zm1 10a1 1 0 1 1 0-2 1 1 0 0 1 0 2z" /></g></symbol><symbol class="icon" viewBox="0 0 1024 1024" id="wechat_pay.617c"><defs><style></style></defs><path fill="#00C901" d="M896 0H128C57.6 0 0 57.6 0 128v768c0 70.4 57.6 128 128 128h768c70.4 0 128-57.6 128-128V128c0-70.4-57.6-128-128-128zM512 787.2c-44.8 0-83.2-6.4-121.6-19.2-25.6 12.8-64 44.8-76.8 51.2-25.6 12.8-19.2-12.8-19.2-12.8l12.8-76.8c-76.8-51.2-121.6-134.4-121.6-224 0-160 147.2-288 326.4-288 108.8 0 211.2 51.2 268.8 121.6l-320 147.2s-25.6 12.8-51.2-6.4l-51.2-38.4s-38.4-32-19.2 19.2L390.4 576s6.4 32 44.8 12.8c32-12.8 268.8-160 371.2-217.6 19.2 38.4 32 83.2 32 128 0 153.6-147.2 288-326.4 288z" /></symbol></defs><use id="add.13d4-usage" xlink:href="#add.13d4" class="sprite-symbol-usage" /><use id="alipay.a56f-usage" xlink:href="#alipay.a56f" class="sprite-symbol-usage" /><use id="arrow_right.2f7c-usage" xlink:href="#arrow_right.2f7c" class="sprite-symbol-usage" /><use id="bonus.c448-usage" xlink:href="#bonus.c448" class="sprite-symbol-usage" /><use id="check.613c-usage" xlink:href="#check.613c" class="sprite-symbol-usage" /><use id="checkbox.00fe-usage" xlink:href="#checkbox.00fe" class="sprite-symbol-usage" /><use id="close.0dd1-usage" xlink:href="#close.0dd1" class="sprite-symbol-usage" /><use id="close_circled.d7b8-usage" xlink:href="#close_circled.d7b8" class="sprite-symbol-usage" /><use id="discount.ebfe-usage" xlink:href="#discount.ebfe" class="sprite-symbol-usage" /><use id="footer_coupon.9004-usage" xlink:href="#footer_coupon.9004" class="sprite-symbol-usage" /><use id="footer_homepage.8fc7-usage" xlink:href="#footer_homepage.8fc7" class="sprite-symbol-usage" /><use id="footer_mission.cc6f-usage" xlink:href="#footer_mission.cc6f" class="sprite-symbol-usage" /><use id="footer_newcoupon.a83e-usage" xlink:href="#footer_newcoupon.a83e" class="sprite-symbol-usage" /><use id="footer_newcouponlight.1dc5-usage" xlink:href="#footer_newcouponlight.1dc5" class="sprite-symbol-usage" /><use id="footer_newhomepage.0ce2-usage" xlink:href="#footer_newhomepage.0ce2" class="sprite-symbol-usage" /><use id="footer_newhomepagedark.76c6-usage" xlink:href="#footer_newhomepagedark.76c6" class="sprite-symbol-usage" /><use id="footer_newhomepagelight.4133-usage" xlink:href="#footer_newhomepagelight.4133" class="sprite-symbol-usage" /><use id="footer_newmission.c002-usage" xlink:href="#footer_newmission.c002" class="sprite-symbol-usage" /><use id="footer_newmissionlight.7f09-usage" xlink:href="#footer_newmissionlight.7f09" class="sprite-symbol-usage" /><use id="location.54ab-usage" xlink:href="#location.54ab" class="sprite-symbol-usage" /><use id="offer.263f-usage" xlink:href="#offer.263f" class="sprite-symbol-usage" /><use id="placeholder.7c04-usage" xlink:href="#placeholder.7c04" class="sprite-symbol-usage" /><use id="rule.ad5b-usage" xlink:href="#rule.ad5b" class="sprite-symbol-usage" /><use id="search.663a-usage" xlink:href="#search.663a" class="sprite-symbol-usage" /><use id="selected.ac20-usage" xlink:href="#selected.ac20" class="sprite-symbol-usage" /><use id="shell.77c2-usage" xlink:href="#shell.77c2" class="sprite-symbol-usage" /><use id="shop.2526-usage" xlink:href="#shop.2526" class="sprite-symbol-usage" /><use id="sub.238d-usage" xlink:href="#sub.238d" class="sprite-symbol-usage" /><use id="tag.82ca-usage" xlink:href="#tag.82ca" class="sprite-symbol-usage" /><use id="tag_line.e160-usage" xlink:href="#tag_line.e160" class="sprite-symbol-usage" /><use id="ticket.aacd-usage" xlink:href="#ticket.aacd" class="sprite-symbol-usage" /><use id="time.c69d-usage" xlink:href="#time.c69d" class="sprite-symbol-usage" /><use id="vip.6f57-usage" xlink:href="#vip.6f57" class="sprite-symbol-usage" /><use id="volume.270e-usage" xlink:href="#volume.270e" class="sprite-symbol-usage" /><use id="warning-brown.0207-usage" xlink:href="#warning-brown.0207" class="sprite-symbol-usage" /><use id="warning.4077-usage" xlink:href="#warning.4077" class="sprite-symbol-usage" /><use id="wechat_pay.617c-usage" xlink:href="#wechat_pay.617c" class="sprite-symbol-usage" /></svg>